#!OML:ASF H:\Terrain\Patient Classification 1\Animal2\Wednesday\Animal2.ASF
:FULLY-SPECIFIED
:DEGREES
3547
root 16.5637 16.0127 -9.03742 -6.27011 -24.3221 -0.285507
lowerback -0.968696 -2.45489 -1.11462
upperback -4.59869 -3.31695 -0.0717638
thorax -4.13401 -1.62152 0.635599
lowerneck -0.248636 -4.72238 11.1396
upperneck -5.00802 -7.37748 -20.4234
head -2.59685 -3.55288 -7.97627
rclavicle 2.34814e-015 -1.42628e-014
rhumerus -40.4802 -3.49282 -79.2962
rradius 120.815
rwrist -15.2606
rhand 8.94551 12.2371
rfingers 7.12502
rthumb 34.1255 -14.5187
lclavicle 2.34814e-015 -1.42628e-014
lhumerus -55.947 18.0228 53.6544
lradius 128.029
lwrist 6.37746
lhand 19.1583 44.688
lfingers 7.12502
lthumb 43.7502 -651.337
rfemur -5.14142 17.8146 5.61938
rtibia 46.6777
rfoot -35.6762 -5.24665
rtoes -27.6997
lfemur -4.37951 6.68402 2.66945
ltibia 43.44
lfoot -26.9328 4.89726
ltoes -43.4081
3548
root 16.566 16.0158 -9.03901 -6.28788 -25.3158 -0.0812653
lowerback -1.21198 -2.50243 -1.44091
upperback -4.60133 -3.38153 -0.0632143
thorax -3.97939 -1.64364 0.815162
lowerneck -0.578673 -4.70043 11.0343
upperneck -4.62336 -7.31972 -20.4753
head -2.41775 -3.55407 -7.98604
rclavicle -2.40032e-014 5.96354e-016
rhumerus -40.6712 -3.43718 -79.2477
rradius 121.002
rwrist -15.8515
rhand 7.21658 12.1064
rfingers 7.12502
rthumb 32.4818 -15.0018
lclavicle -2.40032e-014 5.96354e-016
lhumerus -55.7227 18.3516 53.9531
lradius 128.342
lwrist 6.17911
lhand 18.402 44.2802
lfingers 7.12502
lthumb 43.0436 -651.489
rfemur -5.72095 17.8405 5.18032
rtibia 46.6544
rfoot -35.5894 -6.52673
rtoes -31.5336
lfemur -3.86083 7.30165 2.55805
ltibia 43.2624
lfoot -27.0229 5.26792
ltoes -43.6545
3549
root 16.5682 16.0107 -9.04526 -6.38182 -26.3458 0.0309962
lowerback -1.29576 -2.57209 -1.73259
upperback -4.61384 -3.47483 0.0133747
thorax -3.92171 -1.67907 1.05366
lowerneck -0.649207 -4.60627 11.0013
upperneck -4.41763 -7.17861 -20.6342
head -2.32777 -3.49484 -8.04196
rclavicle 2.38045e-014 9.29318e-015
rhumerus -40.7525 -3.53102 -79.1166
rradius 120.967
rwrist -15.5826
rhand 7.403 12.2045
rfingers 7.12502
rthumb 32.6592 -14.867
lclavicle 2.38045e-014 9.29318e-015
lhumerus -55.5406 18.5712 54.1488
lradius 128.501
lwrist 5.97555
lhand 17.1423 43.5227
lfingers 7.12502
lthumb 41.8642 -651.842
rfemur -6.18835 17.8478 4.87487
rtibia 46.639
rfoot -35.1568 -9.55245
rtoes -37.767
lfemur -3.24417 7.96724 2.60492
ltibia 43.1231
lfoot -27.0995 5.49819
ltoes -44.0059
3550
root 16.5764 16.0058 -9.04815 -6.46624 -27.3554 -0.298803
lowerback -1.24797 -2.65198 -1.46603
upperback -4.49205 -3.57463 0.101434
thorax -3.82888 -1.73801 0.996407
lowerneck -0.805429 -4.42832 11.2399
upperneck -4.26848 -6.94151 -20.9181
head -2.23631 -3.39374 -8.1954
rclavicle -6.40584e-014 -5.56597e-015
rhumerus -40.6601 -3.68856 -78.9185
rradius 120.896
rwrist -15.1442
rhand 8.10854 12.3496
rfingers 7.12502
rthumb 33.3302 -14.5803
lclavicle -6.40584e-014 -5.56597e-015
lhumerus -55.167 18.7396 54.373
lradius 128.642
lwrist 6.07811
lhand 15.5923 42.6765
lfingers 7.12502
lthumb 40.4089 -652.222
rfemur -6.435 17.9508 5.11993
rtibia 46.6314
rfoot -35.17 -9.41259
rtoes -38.3419
lfemur -2.51559 8.47824 3.10722
ltibia 43.0816
lfoot -27.1045 5.60371
ltoes -43.7351
3551
root 16.5879 16.0033 -9.05469 -6.36904 -28.2772 -0.81155
lowerback -1.2366 -2.72434 -0.97433
upperback -4.37566 -3.66158 0.196404
thorax -3.73551 -1.79782 0.819296
lowerneck -0.995442 -4.27068 11.2921
upperneck -4.1421 -6.71953 -20.9169
head -2.13075 -3.30061 -8.21947
rclavicle -8.39368e-014 -4.67144e-015
rhumerus -40.6156 -3.79595 -78.6569
rradius 120.911
rwrist -14.928
rhand 7.76179 12.2122
rfingers 7.12502
rthumb 33.0005 -14.7879
lclavicle -8.39368e-014 -4.67144e-015
lhumerus -54.6398 18.8622 54.8165
lradius 128.81
lwrist 6.2931
lhand 14.5435 41.8542
lfingers 7.12502
lthumb 39.4218 -652.748
rfemur -6.74726 18.1897 5.57368
rtibia 46.6518
rfoot -35.8585 -5.86726
rtoes -32.5885
lfemur -2.02671 8.80549 3.7195
ltibia 43.1627
lfoot -27.1905 5.61781
ltoes -43.0237
3552
root 16.5973 15.9924 -9.06839 -6.25552 -29.0575 -0.929928
lowerback -1.28308 -2.82672 -0.905271
upperback -4.43814 -3.79828 0.209249
thorax -3.77531 -1.86821 0.796218
lowerneck -0.716778 -4.17065 11.1037
upperneck -4.29719 -6.5669 -20.5797
head -2.18005 -3.20605 -8.07228
rclavicle 1.06847e-014 1.09332e-015
rhumerus -40.8084 -3.92931 -78.3946
rradius 120.865
rwrist -14.5521
rhand 7.4957 12.336
rfingers 7.12502
rthumb 32.7474 -14.7172
lclavicle 1.06847e-014 1.09332e-015
lhumerus -54.4554 18.863 55.1327
lradius 129.046
lwrist 6.46183
lhand 13.4291 40.9037
lfingers 7.12502
lthumb 38.3709 -653.399
rfemur -7.21851 18.3078 5.58527
rtibia 46.6996
rfoot -36.1731 -4.78871
rtoes -30.2137
lfemur -1.81948 9.09648 3.87981
ltibia 43.3005
lfoot -27.3523 5.78253
ltoes -42.6228
3553
root 16.6068 15.9775 -9.08738 -6.02752 -29.7903 -1.02563
lowerback -1.36162 -2.9398 -0.930359
upperback -4.59819 -3.95179 0.219983
thorax -3.89264 -1.94331 0.82513
lowerneck -0.233444 -4.1069 11.1071
upperneck -4.54296 -6.47252 -20.3999
head -2.31293 -3.12823 -8.00555
rclavicle 2.49723e-014 -4.96962e-015
rhumerus -40.933 -4.2088 -78.2649
rradius 120.708
rwrist -13.885
rhand 7.66851 12.5487
rfingers 7.12502
rthumb 32.9118 -14.4701
lclavicle 2.49723e-014 -4.96962e-015
lhumerus -54.2807 18.8196 55.3389
lradius 129.207
lwrist 6.59691
lhand 11.6885 40.2721
lfingers 7.12502
lthumb 36.726 -653.593
rfemur -7.8377 18.4284 5.57215
rtibia 46.7897
rfoot -35.9585 -6.28845
rtoes -32.6434
lfemur -1.76238 9.51145 4.03148
ltibia 43.411
lfoot -27.394 6.09195
ltoes -42.5472
3554
root 16.6153 15.9719 -9.10399 -5.96418 -30.5968 -1.02957
lowerback -1.30122 -3.06497 -1.20311
upperback -4.72264 -4.12128 0.354028
thorax -4.02487 -2.01417 1.1249
lowerneck 0.0632217 -3.99601 11.2187
upperneck -4.65976 -6.33244 -20.5965
head -2.38441 -3.04068 -8.09149
rclavicle 3.2228e-014 3.79679e-014
rhumerus -40.9155 -4.34773 -78.0813
rradius 120.64
rwrist -13.3502
rhand 7.83403 12.3122
rfingers 7.12502
rthumb 33.0692 -14.6734
lclavicle 3.2228e-014 3.79679e-014
lhumerus -53.979 18.9985 55.5796
lradius 129.222
lwrist 6.64037
lhand 10.3001 39.9203
lfingers 7.12502
lthumb 35.4109 -653.621
rfemur -8.3915 18.7103 5.52384
rtibia 46.916
rfoot -35.8682 -6.89686
rtoes -32.8924
lfemur -1.53163 9.92228 4.10011
ltibia 43.4526
lfoot -27.3728 6.34864
ltoes -42.4893
3555
root 16.6206 15.9665 -9.10985 -6.48737 -31.4098 -0.541453
lowerback -1.04454 -3.17339 -1.90373
upperback -4.63477 -4.27737 0.375293
thorax -4.02334 -2.06555 1.54966
lowerneck -0.159263 -3.90606 11.4745
upperneck -4.60088 -6.24346 -20.9877
head -2.33354 -3.01249 -8.27863
rclavicle -2.6339e-014 -2.24627e-014
rhumerus -40.7842 -4.43622 -77.8592
rradius 120.679
rwrist -13.0527
rhand 7.86504 12.0183
rfingers 7.12502
rthumb 33.0987 -14.9611
lclavicle -2.6339e-014 -2.24627e-014
lhumerus -53.5975 19.2144 55.8384
lradius 129.293
lwrist 6.9108
lhand 9.79373 39.6539
lfingers 7.12502
lthumb 34.9307 -653.774
rfemur -8.53839 19.0084 5.07843
rtibia 47.0504
rfoot -36.2325 -6.74828
rtoes -32.1435
lfemur -0.83919 10.1232 3.68925
ltibia 43.4235
lfoot -27.5294 6.59399
ltoes -42.2491
